<svg xmlns="http://www.w3.org/2000/svg" xmlns:xlink="http://www.w3.org/1999/xlink" width="48" height="48" viewBox="0 0 48 48">
  <defs>
    <linearGradient id="instagram-icon-b" x1="66.814%" x2="98.343%" y1="-10.507%" y2="111.451%">
      <stop offset="0%" stop-color="#4E60D3"/>
      <stop offset="14.276%" stop-color="#913BAF"/>
      <stop offset="76.146%" stop-color="#D52D88"/>
      <stop offset="100%" stop-color="#F26D4F"/>
    </linearGradient>
    <path id="instagram-icon-a" d="M24,2.66453526e-15 C37.254834,1.19295307e-15 48,10.7422516 48,24 L48,24 C48,37.254834 37.2577484,48 24,48 L24,48 C10.745166,48 2.36163613e-13,37.2577484 2.33035813e-13,24 L2.33035813e-13,24 C2.29908701e-13,10.745166 10.7422516,4.13644101e-15 24,2.66453526e-15 L24,2.66453526e-15 Z"/>
    <radialGradient id="instagram-icon-c" cx="30.274%" cy="100%" r="125.288%" fx="30.274%" fy="100%" gradientTransform="matrix(.63106 .39679 -.19632 .6606 .308 .22)">
      <stop offset="0%" stop-color="#FED276"/>
      <stop offset="17.024%" stop-color="#FDBD61" stop-opacity=".975"/>
      <stop offset="45.408%" stop-color="#F6804D"/>
      <stop offset="100%" stop-color="#E83D5C" stop-opacity="0"/>
    </radialGradient>
  </defs>
  <g fill="none" fill-rule="evenodd">
    <mask id="instagram-icon-d" fill="#fff">
      <use xlink:href="#instagram-icon-a"/>
    </mask>
    <use fill="url(#instagram-icon-b)" xlink:href="#instagram-icon-a"/>
    <path fill="url(#instagram-icon-c)" d="M47.7244544,45.9979086 C47.675171,47.1036332 46.7470817,48 45.6339548,48 L16.4934146,48 C7.38435323,48 -6.7929354e-15,40.611421 -6.40757487e-15,31.499933 L-5.78328444e-15,16.7391719 C3.81687147,15.6138417 7.93711868,15 12.234375,15 C30.2461951,15 45.513026,25.7842291 48,39.8157557 L47.7244544,45.9979086 Z" mask="url(#instagram-icon-d)"/>
    <path fill="#FFF" d="M24.001125,12 C20.7420911,12 20.3330868,12.0142501 19.0530735,12.0725008 C17.7755602,12.1310014 16.9035511,12.3332535 16.1405431,12.6300066 C15.3512849,12.9365098 14.6817779,13.346514 14.014771,14.013771 C13.347264,14.6807779 12.9372598,15.3502849 12.6297566,16.1392931 C12.3322535,16.9025511 12.1297514,17.7748102 12.0722508,19.0518235 C12.0150002,20.3318368 12,20.7410911 12,24.000125 C12,27.2591589 12.0145002,27.6669132 12.0725008,28.9469265 C12.1312514,30.2244398 12.3335035,31.0964489 12.6300066,31.8594569 C12.9367598,32.6487151 13.346764,33.3182221 14.014021,33.985229 C14.6807779,34.652736 15.3502849,35.0637402 16.1390431,35.3702434 C16.9025511,35.6669965 17.7748102,35.8692486 19.0520735,35.9277492 C20.3320868,35.9859999 20.7408411,36.00025 23.999625,36.00025 C27.2589089,36.00025 27.6666632,35.9859999 28.9466765,35.9277492 C30.2241898,35.8692486 31.0971989,35.6669965 31.8607069,35.3702434 C32.6497151,35.0637402 33.3182221,34.652736 33.984979,33.985229 C34.652486,33.3182221 35.0624902,32.6487151 35.3699934,31.8597069 C35.6649965,31.0964489 35.8674986,30.2241898 35.9274992,28.9471765 C35.9849998,27.6671632 36,27.2591589 36,24.000125 C36,20.7410911 35.9849998,20.3320868 35.9274992,19.0520735 C35.8674986,17.7745602 35.6649965,16.9025511 35.3699934,16.1395431 C35.0624902,15.3502849 34.652486,14.6807779 33.984979,14.013771 C33.3174721,13.346264 32.6499651,12.9362598 31.8599569,12.6300066 C31.0949489,12.3332535 30.2224398,12.1310014 28.9449265,12.0725008 C27.6649132,12.0142501 27.2574089,12 23.997375,12 L24.001125,12 Z M22.9246138,14.1625225 C23.2441171,14.1620225 23.6006208,14.1625225 24.001125,14.1625225 C27.2051584,14.1625225 27.5849123,14.1740226 28.8501755,14.2315232 C30.0201877,14.2850238 30.6551943,14.4805258 31.0781987,14.6447775 C31.6382046,14.8622798 32.0374587,15.1222825 32.4572131,15.5422869 C32.8772175,15.9622913 33.1372202,16.3622954 33.3552225,16.9223013 C33.5194742,17.3448057 33.7152262,17.9798123 33.7684768,19.1498245 C33.8259774,20.4148377 33.8384775,20.7948416 33.8384775,23.997375 C33.8384775,27.1999083 33.8259774,27.5799123 33.7684768,28.8449255 C33.7149762,30.0149377 33.5194742,30.6499443 33.3552225,31.0724487 C33.1377202,31.6324545 32.8772175,32.0312087 32.4572131,32.450963 C32.0372087,32.8709674 31.6384546,33.1309701 31.0781987,33.3484724 C30.6556943,33.5134741 30.0201877,33.7084761 28.8501755,33.7619767 C27.5851623,33.8194773 27.2051584,33.8319774 24.001125,33.8319774 C20.7968416,33.8319774 20.4170877,33.8194773 19.1520745,33.7619767 C17.9820623,33.7079761 17.3470557,33.5124741 16.9238013,33.3482224 C16.3637955,33.1307201 15.9637913,32.8707174 15.5437869,32.450713 C15.1237825,32.0307087 14.8637798,31.6317045 14.6457776,31.0714487 C14.4815258,30.6489443 14.2857738,30.0139376 14.2325233,28.8439255 C14.1750227,27.5789123 14.1635225,27.1989083 14.1635225,23.9943749 C14.1635225,20.7898416 14.1750227,20.4118376 14.2325233,19.1468244 C14.2860238,17.9768123 14.4815258,17.3418056 14.6457776,16.9188012 C14.8632798,16.3587954 15.1237825,15.9587912 15.5437869,15.5387869 C15.9637913,15.1187825 16.3637955,14.8587798 16.9238013,14.6407775 C17.3468057,14.4757758 17.9820623,14.2807738 19.1520745,14.2270232 C20.259086,14.1770227 20.6880905,14.1620225 22.9246138,14.1595225 L22.9246138,14.1625225 Z M30.4066917,16.1550433 C29.6116835,16.1550433 28.9666767,16.7993 28.9666767,17.5945583 C28.9666767,18.3895666 29.6116835,19.0345733 30.4066917,19.0345733 C31.2017,19.0345733 31.8467067,18.3895666 31.8467067,17.5945583 C31.8467067,16.79955 31.2017,16.1545433 30.4066917,16.1545433 L30.4066917,16.1550433 Z M24.001125,17.8375608 C20.5978396,17.8375608 17.8385608,20.5968396 17.8385608,24.000125 C17.8385608,27.4034105 20.5978396,30.1614392 24.001125,30.1614392 C27.4044105,30.1614392 30.1626892,27.4034105 30.1626892,24.000125 C30.1626892,20.5968396 27.4041605,17.8375608 24.000875,17.8375608 L24.001125,17.8375608 Z M24.001125,20.0000833 C26.210148,20.0000833 28.0011667,21.790852 28.0011667,24.000125 C28.0011667,26.209148 26.210148,28.0001667 24.001125,28.0001667 C21.791852,28.0001667 20.0010833,26.209148 20.0010833,24.000125 C20.0010833,21.790852 21.791852,20.0000833 24.001125,20.0000833 L24.001125,20.0000833 Z"/>
  </g>
</svg>
