<svg xmlns="http://www.w3.org/2000/svg" width="48" height="48" viewBox="0 0 48 48">
  <g fill="none" fill-rule="evenodd">
    <path fill="#0077B5" d="M0,24 C0,10.7451653 10.7451653,0 24,0 C37.2548347,0 48,10.7451653 48,24 C48,37.2548347 37.2548347,48 24,48 C10.7451653,48 0,37.2548347 0,24 Z"/>
    <path fill="#FFF" d="M16.960542,19.8778483 L16.960542,36.2195598 L11.5216171,36.2195598 L11.5216171,19.8778483 L16.960542,19.8778483 Z M17.3187633,14.8226977 C17.3187633,16.3918031 16.137654,17.6473477 14.2411882,17.6473477 L14.2064305,17.6473477 C12.3804576,17.6473477 11.2,16.3918031 11.2,14.8226977 C11.2,13.2204032 12.4164101,12 14.277032,12 C16.137654,12 17.2834625,13.2204032 17.3187633,14.8226977 Z M36.5753856,26.8497218 L36.5751684,36.2195598 L31.1364608,36.2195598 L31.1364608,27.4767349 C31.1364608,25.2807249 30.3494166,23.7822276 28.3805028,23.7822276 C26.8778849,23.7822276 25.9828747,24.7924335 25.5897871,25.7681487 C25.4459772,26.117827 25.4106765,26.6050338 25.4106765,27.0934337 L25.4106765,36.2199936 L19.9710999,36.2199936 C19.9710999,36.2199936 20.0427876,21.4117039 19.9710999,19.8782822 L25.4106765,19.8782822 L25.4106765,22.1929485 C26.13255,21.080247 27.425427,19.4941133 30.3131383,19.4941133 C33.8922015,19.4941133 36.5753856,21.8302549 36.5753856,26.8497218 Z"/>
  </g>
</svg>
