<svg xmlns="http://www.w3.org/2000/svg" width="1040" height="1688" viewBox="0 0 1040 1688">
  <path fill="#FFF" d="M1598,686.80188 C1597.98329,582.540264 1566.53774,480.713679 1507.78096,394.65575 C1615.36717,326.872425 1594.61679,166 1594.61679,166 L1078.11277,166 C790.862416,166.000006 558,399.272107 558,687.027825 C558,974.783542 790.862416,1208.05564 1078.11277,1208.05565 L1145.77705,1208.05565 C1232.16358,1208.28625 1308.11344,1265.3993 1332.45235,1348.43242 C1356.79127,1431.46553 1323.7236,1520.64666 1251.17614,1567.62855 C1178.62867,1614.61043 1083.87659,1608.20562 1018.28731,1551.88632 C952.698033,1495.56702 931.889834,1402.74413 967.143346,1323.73919 L733.927122,1217.77126 C639.216252,1430.18102 720.96273,1679.91531 922.840739,1794.8996 C1124.71875,1909.88388 1380.75426,1852.54112 1514.53099,1662.38223 C1648.30773,1472.22334 1616.10725,1211.39252 1440.11668,1059.61017 C1540.90318,961.840571 1597.8614,827.345705 1598,686.80188 L1598,686.80188 Z M891.078038,874.091138 C815.81683,799.307219 792.52043,686.740441 831.909634,588.193035 C871.298837,489.645629 965.742297,424.210377 1071.77797,422 L1092.10672,422 C1209.72038,428.51901 1308.85248,512.087957 1335.25134,626.972362 C1361.65021,741.856768 1308.95309,860.366735 1205.99934,917.645738 C1103.0456,974.92474 974.649544,957.167166 891.078038,874.091138 L891.078038,874.091138 Z" opacity=".05" transform="translate(-558 -166)"/>
</svg>
