<svg xmlns="http://www.w3.org/2000/svg" width="48" height="48" viewBox="0 0 48 48">
  <g fill="none" fill-rule="evenodd">
    <rect width="48" height="48" fill="#24A9E6" rx="24"/>
    <path fill="#FFF" d="M36.0038754,14.7733333 C35.04406,15.3552941 33.9834833,15.7790081 32.8499193,16.0063668 C31.9469435,15.0174856 30.6564245,14.4 29.2276817,14.4 C26.4890427,14.4 24.2664821,16.6787543 24.2664821,19.4890888 C24.2664821,19.8882584 24.3091119,20.2758016 24.3943714,20.648489 C20.2696194,20.4359862 16.6131488,18.4117186 14.1638754,15.3294579 C13.736286,16.0838754 13.4921338,16.9584314 13.4921338,17.8904729 C13.4921338,19.6550865 14.3679815,21.2136563 15.7004844,22.1263206 C14.8879354,22.1017762 14.1212457,21.8698962 13.4507958,21.4913956 L13.4507958,21.5540484 C13.4507958,24.0207612 15.1617993,26.07797 17.4340946,26.5443137 C17.0181315,26.6631603 16.5789158,26.7232295 16.1261361,26.7232295 C15.8064129,26.7232295 15.4944406,26.692872 15.1921569,26.6328028 C15.8238524,28.6538408 17.6556401,30.1258593 19.8278201,30.1652595 C18.1297347,31.5313495 15.9885582,32.3451903 13.6639446,32.3451903 C13.2634833,32.3451903 12.8675433,32.3219377 12.48,32.2754325 C14.6760784,33.7170934 17.2861822,34.56 20.08812,34.56 C29.2179931,34.56 34.2089043,26.8059054 34.2089043,20.0807382 C34.2089043,19.8591926 34.2050288,19.6376471 34.1966321,19.4206228 C35.1661361,18.7030219 36.0083968,17.8071511 36.6710957,16.7866205 C35.7823299,17.1916032 34.825098,17.4654671 33.821361,17.5875433 C34.8464129,16.9584314 35.6331257,15.9611534 36.0038754,14.7733333"/>
  </g>
</svg>
